<svg xmlns="http://www.w3.org/2000/svg" viewBox="0 0 198.07 210.85"><defs><style>.cls-1{fill:#01e8a2;}</style></defs><g id="Capa_2" data-name="Capa 2"><g id="Capa_1-2" data-name="Capa 1"><path class="cls-1" d="M99.09,118.57A5.06,5.06,0,0,1,94,113.5V81.8a5.09,5.09,0,0,1,2.55-4.41L126,60.55,111.27,52a5.08,5.08,0,1,1,5.13-8.77l22.29,13a5.07,5.07,0,0,1,0,8.79L104.17,84.74v20L182.82,59.3,111.31,18.18a5.08,5.08,0,0,1,5.06-8.8l79.15,45.51a5.07,5.07,0,0,1,0,8.79l-93.9,54.21A5,5,0,0,1,99.09,118.57Z"/><path class="cls-1" d="M99,210.85a5.08,5.08,0,0,1-2.53-.68L2.54,156a5.07,5.07,0,0,1,5.07-8.79L99,199.91l91.36-52.74a5.08,5.08,0,1,1,5.08,8.79l-93.9,54.21A5.09,5.09,0,0,1,99,210.85Z"/><path class="cls-1" d="M99,164.6a5.08,5.08,0,0,1-2.53-.68L2.54,109.71a5.07,5.07,0,1,1,5.07-8.79L99,153.66l91.36-52.74a5.08,5.08,0,1,1,5.08,8.79l-93.9,54.21A5.09,5.09,0,0,1,99,164.6Z"/><path class="cls-1" d="M84.13,109.94a5.06,5.06,0,0,1-2.53-.68L2.66,63.68a5.07,5.07,0,0,1,0-8.79L96.56.68a5.08,5.08,0,0,1,7.61,4.4v34a5.07,5.07,0,0,1-2.57,4.41L72.59,60l14.09,8.15A5.08,5.08,0,0,1,81.6,77L59.86,64.39a5.07,5.07,0,0,1,0-8.81L94,36.15V13.87L15.35,59.29l71.33,41.18a5.07,5.07,0,0,1-2.55,9.47Z"/></g></g></svg>