<svg xmlns="http://www.w3.org/2000/svg" viewBox="0 0 537.88 133.21"><defs><style>.cls-1{fill:#fff;}.cls-2{fill:#01e8a2;}</style></defs><g id="Capa_2" data-name="Capa 2"><g id="Capa_1-2" data-name="Capa 1"><path class="cls-1" d="M194.24,99.28a4.14,4.14,0,0,1-3.94-2.76L165.79,40.45c-.78-1.89-.87-3.45-.25-4.68a3.54,3.54,0,0,1,3.51-1.84,4,4,0,0,1,4,2.59l21.5,51.63h-.92l21.92-51.63a3.65,3.65,0,0,1,3.94-2.59,3.58,3.58,0,0,1,3.47,1.8,4.28,4.28,0,0,1,0,4L198.17,96.52a5,5,0,0,1-1.55,2A3.93,3.93,0,0,1,194.24,99.28Z"/><path class="cls-1" d="M237.83,99.28a4.29,4.29,0,0,1-4.35-4.35V38.28a4.2,4.2,0,0,1,1.25-3.14,4.29,4.29,0,0,1,3.1-1.21h37.82a4.27,4.27,0,0,1,3.1,1.13,3.93,3.93,0,0,1,1.17,3,3.69,3.69,0,0,1-1.17,2.84,4.38,4.38,0,0,1-3.1,1.09H242.18V62.29h24a4.28,4.28,0,0,1,3.1,1.13,4.15,4.15,0,0,1,0,5.78,4.28,4.28,0,0,1-3.1,1.13h-24V91.24h33.47a4.42,4.42,0,0,1,3.1,1.09,3.72,3.72,0,0,1,1.17,2.85,4,4,0,0,1-1.17,3,4.31,4.31,0,0,1-3.1,1.13Z"/><path class="cls-1" d="M296.32,99.28A4.07,4.07,0,0,1,293.26,98a4.26,4.26,0,0,1-1.21-3.09V38.28a4.25,4.25,0,0,1,1.21-3.14,4.38,4.38,0,0,1,6.4.38l36.48,48.53V38.28a4.17,4.17,0,0,1,1.26-3.14,4.29,4.29,0,0,1,3.1-1.21,4.09,4.09,0,0,1,3.09,1.21,4.34,4.34,0,0,1,1.17,3.14V94.93A4.36,4.36,0,0,1,343.59,98a4,4,0,0,1-3.09,1.26,5,5,0,0,1-1.8-.38,3.58,3.58,0,0,1-1.55-1.13L300.67,49.24V94.93A4.27,4.27,0,0,1,299.45,98,4.15,4.15,0,0,1,296.32,99.28Z"/><path class="cls-1" d="M391.7,100.11a35.73,35.73,0,0,1-13.47-2.46,30.58,30.58,0,0,1-10.5-7,31.46,31.46,0,0,1-6.82-10.63,36.44,36.44,0,0,1-2.42-13.51,36.11,36.11,0,0,1,2.42-13.47,31.68,31.68,0,0,1,6.82-10.59,30.7,30.7,0,0,1,10.5-6.94,37.85,37.85,0,0,1,26.9,0A30.86,30.86,0,0,1,422.5,53.09a36.32,36.32,0,0,1,2.42,13.47,36.64,36.64,0,0,1-2.42,13.51,30.83,30.83,0,0,1-17.37,17.58A35.41,35.41,0,0,1,391.7,100.11Zm0-7.86a25,25,0,0,0,10-2,23.93,23.93,0,0,0,13.06-13.59,29.38,29.38,0,0,0,0-20.25,24,24,0,0,0-5.15-8.16,23.63,23.63,0,0,0-7.91-5.4,27,27,0,0,0-20,0,23.13,23.13,0,0,0-7.86,5.4,24.9,24.9,0,0,0-5.15,8.16,28.78,28.78,0,0,0,0,20.25,25,25,0,0,0,5.15,8.15,23.52,23.52,0,0,0,7.86,5.44A25,25,0,0,0,391.7,92.25Z"/><path class="cls-1" d="M442.91,99.28a4.29,4.29,0,0,1-4.35-4.35V38.28a4.2,4.2,0,0,1,1.25-3.14,4.29,4.29,0,0,1,3.1-1.21H458a23,23,0,0,1,11.13,2.63,19.26,19.26,0,0,1,7.57,7.24,20.6,20.6,0,0,1,2.72,10.71A18.57,18.57,0,0,1,469.1,71.58,23.89,23.89,0,0,1,458,74.09H447.26V94.93A4.26,4.26,0,0,1,446.05,98,4.17,4.17,0,0,1,442.91,99.28Zm4.35-33.22H458a14.91,14.91,0,0,0,6.78-1.47,11.23,11.23,0,0,0,4.6-4.1,10.87,10.87,0,0,0,1.68-6A12.56,12.56,0,0,0,469.35,48a11.69,11.69,0,0,0-4.6-4.44A14,14,0,0,0,458,42H447.26Zm30.38,33.22a4.59,4.59,0,0,1-2.14-.5,4.34,4.34,0,0,1-1.63-1.59L458.81,72.92l8.45-2.43L481,92.58a4.39,4.39,0,0,1,.42,4.56A3.86,3.86,0,0,1,477.64,99.28Z"/><path class="cls-1" d="M495.79,99.28a4.3,4.3,0,0,1-4.35-4.35V38.28a4.17,4.17,0,0,1,1.26-3.14,4.25,4.25,0,0,1,3.09-1.21h37.82a4.26,4.26,0,0,1,3.1,1.13,3.93,3.93,0,0,1,1.17,3,3.69,3.69,0,0,1-1.17,2.84,4.36,4.36,0,0,1-3.1,1.09H500.14V62.29h24a4.27,4.27,0,0,1,3.09,1.13,4.13,4.13,0,0,1,0,5.78,4.27,4.27,0,0,1-3.09,1.13h-24V91.24h33.47a4.41,4.41,0,0,1,3.1,1.09,3.72,3.72,0,0,1,1.17,2.85,4,4,0,0,1-1.17,3,4.3,4.3,0,0,1-3.1,1.13Z"/><path class="cls-2" d="M62.6,74.91a3.15,3.15,0,0,1-1.6-.43,3.21,3.21,0,0,1-1.61-2.78v-20A3.21,3.21,0,0,1,61,48.89L79.6,38.26l-9.3-5.44a3.21,3.21,0,0,1,3.23-5.54l14.09,8.24a3.2,3.2,0,0,1,0,5.55L65.81,53.54V66.15L115.5,37.46l-45.18-26a3.2,3.2,0,1,1,3.19-5.55l50,28.74a3.21,3.21,0,0,1,0,5.56L64.2,74.48A3.15,3.15,0,0,1,62.6,74.91Z"/><path class="cls-2" d="M62.53,133.21a3.29,3.29,0,0,1-1.61-.43L1.6,98.53A3.21,3.21,0,0,1,4.81,93L62.53,126.3,120.24,93a3.21,3.21,0,0,1,3.21,5.56L64.13,132.78A3.28,3.28,0,0,1,62.53,133.21Z"/><path class="cls-2" d="M62.53,104a3.29,3.29,0,0,1-1.61-.43L1.6,69.31a3.21,3.21,0,0,1,3.21-5.56L62.53,97.08l57.71-33.33a3.21,3.21,0,0,1,3.21,5.56L64.13,103.56A3.28,3.28,0,0,1,62.53,104Z"/><path class="cls-2" d="M53.15,69.45a3.13,3.13,0,0,1-1.6-.43L1.68,40.23a3.21,3.21,0,0,1,0-5.55L61,.43a3.21,3.21,0,0,1,4.81,2.78V24.7a3.22,3.22,0,0,1-1.62,2.79L45.86,37.92l8.9,5.15a3.21,3.21,0,1,1-3.21,5.55L37.81,40.68a3.21,3.21,0,0,1,0-5.57L59.4,22.84V8.76L9.7,37.45l45.06,26a3.21,3.21,0,0,1-1.61,6Z"/></g></g></svg>